#!OML:ASF I:\Actors\actors\Patient Classification 1\Patient 1\Session 1\Subject1.ASF
:FULLY-SPECIFIED
:DEGREES
409
root 0.353033 17.8361 8.62242 20.8 -2.29371 -11.1234
lowerback 3.84669 4.81418 6.28817
upperback 4.46446 6.52046 -0.830978
thorax 3.29131 3.46771 -4.37499
lowerneck -1.55734 -4.3368 -2.74658
upperneck 12.6409 -6.99154 11.3924
head 4.5193 -2.98664 3.64491
rclavicle -3.57812e-014 -9.14409e-015
rhumerus 33.3103 46.4234 -27.1345
rradius 59.6515
rwrist -22.9119
rhand 8.74365 -34.6576
rfingers 7.12502
rthumb 33.9338 -61.4561
lclavicle -3.57812e-014 -9.14409e-015
lhumerus 49.3204 -58.3113 23.8398
lradius 46.0554
lwrist 46.9613
lhand -15.0156 -1.35864
lfingers 7.12502
lthumb 11.1497 28.3251
rfemur -19.189 24.5142 20.3866
rtibia 5.67132
rfoot -9.73414 -23.3448
rtoes 0.873592
lfemur -14.3161 -36.5616 2.50896
ltibia -0.773802
lfoot -18.2069 49.6571
ltoes 10.6483
410
root 0.336002 17.8299 8.63631 20.782 -1.27545 -10.9024
lowerback 3.39846 4.6994 6.21897
upperback 4.56781 6.32356 -0.247746
thorax 3.54705 3.36302 -3.69217
lowerneck -1.06531 -4.54102 -2.46776
upperneck 12.2072 -7.16503 10.8339
head 4.28938 -3.11537 3.42781
rclavicle 3.63776e-014 -1.19271e-015
rhumerus 33.5681 47.5768 -29.0706
rradius 57.9373
rwrist -22.2893
rhand 8.42607 -35.1337
rfingers 7.12502
rthumb 33.632 -61.9984
lclavicle 3.63776e-014 -1.19271e-015
lhumerus 46.7914 -58.4034 27.1452
lradius 45.4573
lwrist 46.2791
lhand -15.5488 -0.864799
lfingers 7.12502
lthumb 10.6354 28.8461
rfemur -18.8759 24.7552 20.3457
rtibia 5.35039
rfoot -10.1822 -24.627
rtoes 1.55228
lfemur -14.7532 -36.3934 2.66779
ltibia -0.765798
lfoot -16.9034 48.8727
ltoes 9.12088
411
root 0.320691 17.8211 8.64518 20.6882 -0.501821 -10.4251
lowerback 3.13221 4.63983 5.74147
upperback 4.62596 6.20911 0.268347
thorax 3.62709 3.2811 -2.87687
lowerneck -0.554468 -4.74241 -2.06229
upperneck 11.8707 -7.34064 10.1999
head 4.07845 -3.2382 3.17086
rclavicle -5.96354e-016 2.48481e-014
rhumerus 34.7645 49.7707 -28.4848
rradius 57.5341
rwrist -23.4499
rhand 7.54721 -35.8525
rfingers 7.12502
rthumb 32.7964 -62.8954
lclavicle -5.96354e-016 2.48481e-014
lhumerus 44.4197 -58.6092 30.1958
lradius 44.9028
lwrist 45.4842
lhand -15.7583 -0.397999
lfingers 7.12502
lthumb 10.4333 29.3231
rfemur -18.5484 24.9913 19.973
rtibia 5.09078
rfoot -10.6653 -25.7661
rtoes 2.30754
lfemur -15.0363 -36.4421 2.39909
ltibia -0.740682
lfoot -15.9724 48.2867
ltoes 8.0922
412
root 0.30745 17.8127 8.65348 20.6373 0.215383 -9.95376
lowerback 2.98795 4.54638 5.59254
upperback 4.57588 6.06718 0.689664
thorax 3.57662 3.19416 -2.35751
lowerneck 0.0540683 -4.86872 -2.0078
upperneck 11.6889 -7.42423 9.65582
head 3.90576 -3.32217 3.00852
rclavicle 1.23743e-014 -3.0911e-014
rhumerus 32.9901 50.2864 -32.6041
rradius 55.4805
rwrist -20.7896
rhand 10.2563 -35.1462
rfingers 7.12502
rthumb 35.3694 -61.6152
lclavicle 1.23743e-014 -3.0911e-014
lhumerus 42.2405 -59.0027 32.8061
lradius 44.4242
lwrist 44.7537
lhand -15.7072 -0.313543
lfingers 7.12502
lthumb 10.4826 29.4051
rfemur -18.2776 25.1161 19.6042
rtibia 4.87783
rfoot -11.061 -26.764
rtoes 3.03382
lfemur -15.353 -36.4483 2.13351
ltibia -0.704363
lfoot -15.054 47.7086
ltoes 7.02251
413
root 0.29657 17.8066 8.66071 20.5799 0.920191 -9.55206
lowerback 2.9359 4.42031 5.61976
upperback 4.56955 5.88859 1.06157
thorax 3.54591 3.0977 -1.99147
lowerneck 0.24743 -5.13052 -2.23231
upperneck 11.5629 -7.73755 9.49972
head 3.85732 -3.49994 2.98973
rclavicle 5.71506e-016 -1.44119e-015
rhumerus 33.1122 51.5564 -33.5515
rradius 54.3027
rwrist -19.19
rhand 13.5379 -33.9643
rfingers 7.12502
rthumb 38.4737 -59.6331
lclavicle 5.71506e-016 -1.44119e-015
lhumerus 40.7679 -59.4676 34.4203
lradius 44.111
lwrist 44.3596
lhand -15.8047 -0.37802
lfingers 7.12502
lthumb 10.3886 29.3453
rfemur -18.0091 25.3698 19.2851
rtibia 4.66723
rfoot -11.459 -27.8207
rtoes 3.84502
lfemur -15.6386 -36.4052 1.91976
ltibia -0.677917
lfoot -14.143 47.0866
ltoes 5.84614
414
root 0.288179 17.8017 8.66826 20.5379 1.60579 -9.22165
lowerback 2.92091 4.26639 5.79944
upperback 4.58269 5.67605 1.4086
thorax 3.53382 2.99083 -1.73646
lowerneck 0.589743 -5.24783 -2.18779
upperneck 11.1522 -7.81715 9.10936
head 3.66565 -3.57429 2.87304
rclavicle -6.65929e-014 -9.93923e-016
rhumerus 33.5033 52.9121 -34.1717
rradius 53.4603
rwrist -18.0927
rhand 15.365 -33.3058
rfingers 7.12502
rthumb 40.1951 -58.4727
lclavicle -6.65929e-014 -9.93923e-016
lhumerus 40.0058 -60.1002 35.0551
lradius 43.9732
lwrist 44.1813
lhand -16.1989 -0.574908
lfingers 7.12502
lthumb 10.0082 29.1671
rfemur -17.795 25.7512 18.9962
rtibia 4.50934
rfoot -11.9626 -28.9084
rtoes 4.83066
lfemur -15.9315 -36.4359 1.79472
ltibia -0.640268
lfoot -13.454 46.5511
ltoes 4.85653
415
root 0.280557 17.7983 8.6766 20.5344 2.25137 -8.89311
lowerback 2.8527 4.11578 5.90085
upperback 4.53834 5.46654 1.74648
thorax 3.48597 2.88147 -1.44686
lowerneck 1.04255 -5.37428 -2.28049
upperneck 10.5623 -7.88531 8.62831
head 3.79611 -3.6772 3.05813
rclavicle -8.46823e-014 -1.59028e-015
rhumerus 35.7966 55.6804 -31.5913
rradius 53.7669
rwrist -19.4594
rhand 14.8214 -33.3246
rfingers 7.12502
rthumb 39.6835 -58.6454
lclavicle -8.46823e-014 -1.59028e-015
lhumerus 39.6441 -60.9498 35.1677
lradius 43.9464
lwrist 44.106
lhand -16.4683 -0.755515
lfingers 7.12502
lthumb 9.74835 28.9989
rfemur -17.6666 25.9725 18.7048
rtibia 4.44213
rfoot -12.4408 -29.8041
rtoes 5.6841
lfemur -16.2492 -36.6498 1.71142
ltibia -0.614338
lfoot -12.9942 46.2263
ltoes 4.09231
416
root 0.273025 17.7976 8.68347 20.5468 2.82119 -8.5727
lowerback 2.84966 3.94408 6.01786
upperback 4.61052 5.22846 2.05995
thorax 3.5276 2.76282 -1.18988
lowerneck 0.700895 -5.47034 -2.69347
upperneck 10.9154 -8.05947 8.87759
head 3.60085 -3.73062 2.87947
rclavicle -5.82439e-014 -4.05521e-014
rhumerus 33.6751 55.959 -35.4713
rradius 52.6137
rwrist -16.6345
rhand 16.4926 -32.7657
rfingers 7.12502
rthumb 41.2547 -57.6006
lclavicle -5.82439e-014 -4.05521e-014
lhumerus 39.7063 -61.5203 34.9016
lradius 43.9848
lwrist 44.1416
lhand -16.4041 -0.968185
lfingers 7.12502
lthumb 9.81035 28.7833
rfemur -17.5749 26.0243 18.4303
rtibia 4.40122
rfoot -12.7935 -30.4623
rtoes 6.29678
lfemur -16.5398 -36.8213 1.61484
ltibia -0.605664
lfoot -12.5138 45.9034
ltoes 3.27702
417
root 0.265899 17.7999 8.68785 20.5584 3.3029 -8.3479
lowerback 2.83328 3.78244 6.13242
upperback 4.59781 5.00756 2.34769
thorax 3.49296 2.65024 -0.960908
lowerneck 0.757715 -5.54571 -2.72797
upperneck 10.5046 -8.08485 8.43608
head 3.85594 -3.7932 3.05776
rclavicle 9.93923e-016 -1.27222e-014
rhumerus 33.5989 57.0231 -36.1929
rradius 52.7402
rwrist -18.2969
rhand 18.6566 -33.0302
rfingers 7.12502
rthumb 43.2816 -57.1758
lclavicle 9.93923e-016 -1.27222e-014
lhumerus 39.266 -62.1257 35.002
lradius 44.1499
lwrist 44.083
lhand -16.0338 -1.17085
lfingers 7.12502
lthumb 10.1676 28.5635
rfemur -17.5109 26.0537 18.2565
rtibia 4.36906
rfoot -12.9993 -30.9807
rtoes 6.67307
lfemur -16.8118 -36.733 1.57038
ltibia -0.560226
lfoot -11.9655 45.4109
ltoes 2.41102
